<svg width="128" height="128" viewBox="0 0 128 128" fill="none" xmlns="http://www.w3.org/2000/svg">
<g clip-path="url(#clip0_932_3)">
<path d="M64 128C99.3462 128 128 99.3462 128 64C128 28.6538 99.3462 0 64 0C28.6538 0 0 28.6538 0 64C0 99.3462 28.6538 128 64 128Z" fill="#E3F6FF"/>
<path d="M65.5054 36.8848L88.3572 38.3504C90.8068 38.5068 93.2454 37.9075 95.3434 36.6333C97.4414 35.3592 99.0977 33.4717 100.088 31.2259C101.294 28.4936 103.476 26.3099 106.208 25.1024C108.94 23.8949 112.023 23.7507 114.856 24.6979L126.579 28.6224L127.429 21.7194L111.713 17.3917C108.852 16.603 105.799 16.9045 103.147 18.2377C100.494 19.5709 98.4312 21.841 97.3569 24.6083L96.5454 26.696C95.76 28.7138 94.4429 30.4813 92.734 31.8109C91.0251 33.1406 88.9881 33.9827 86.8391 34.248L65.5054 36.8848Z" fill="#E26841"/>
<path d="M67.3574 40.0161L85.7229 33.7006C87.4559 33.1043 89.0292 32.1187 90.322 30.8195C91.6147 29.5204 92.5925 27.9422 93.1801 26.2062L94.8979 21.1297C95.7211 18.6927 97.3064 16.5853 99.4197 15.1188C101.533 13.6523 104.062 12.9047 106.633 12.9864L121.073 13.4484L121.491 5.81836L101.917 6.22156C99.2433 6.27655 96.6644 7.22431 94.591 8.91403C92.5177 10.6037 91.069 12.9383 90.4755 15.5464L88.8205 22.7963C88.461 24.3681 87.7883 25.8513 86.8426 27.1572C85.8969 28.4631 84.6976 29.565 83.3165 30.3969L67.3574 40.0161Z" fill="#E26841"/>
<mask id="mask0_932_3" style="mask-type:luminance" maskUnits="userSpaceOnUse" x="0" y="0" width="128" height="128">
<path d="M64 128C99.3462 128 128 99.3462 128 64C128 28.6538 99.3462 0 64 0C28.6538 0 0 28.6538 0 64C0 99.3462 28.6538 128 64 128Z" fill="white"/>
</mask>
<g mask="url(#mask0_932_3)">
<mask id="mask1_932_3" style="mask-type:luminance" maskUnits="userSpaceOnUse" x="-2" y="0" width="131" height="132">
<path d="M-1.88672 66.1873C-1.88941 74.7498 -0.205529 83.229 3.06877 91.1408C6.34307 99.0526 11.1437 106.242 17.1965 112.298C23.2492 118.355 30.4357 123.16 38.3455 126.439C46.2553 129.718 54.7335 131.407 63.296 131.41C71.8584 131.407 80.3365 129.718 88.2461 126.439C96.1558 123.159 103.342 118.354 109.395 112.298C115.447 106.242 120.248 99.0522 123.522 91.1405C126.796 83.2288 128.48 74.7497 128.477 66.1873C128.48 57.6248 126.796 49.1457 123.522 41.234C120.248 33.3223 115.447 26.133 109.395 20.0765C103.342 14.0201 96.1558 9.21507 88.2461 5.93588C80.3365 2.65669 71.8584 0.967533 63.296 0.964844C54.7335 0.967365 46.2553 2.6564 38.3455 5.93551C30.4357 9.21463 23.2492 14.0196 17.1965 20.0761C11.1437 26.1325 6.34307 33.3219 3.06877 41.2337C-0.205529 49.1455 -1.88941 57.6247 -1.88672 66.1873Z" fill="white"/>
</mask>
<g mask="url(#mask1_932_3)">
<path d="M93.0418 208.638L36.6668 215.382L25.5372 129.889C24.6387 124.247 24.9748 118.478 26.5221 112.978C28.0694 107.479 30.7912 102.38 34.4997 98.0343C38.2083 93.6885 42.8153 90.1988 48.0031 87.8059C53.1909 85.413 58.8359 84.1738 64.549 84.1738C70.2621 84.1738 75.9072 85.413 81.095 87.8059C86.2828 90.1988 90.8898 93.6885 94.5983 98.0343C98.3068 102.38 101.029 107.479 102.576 112.978C104.123 118.478 104.459 124.247 103.561 129.889L93.0418 208.638Z" fill="#E26841"/>
</g>
<path d="M58.7278 98.2715L88.1409 124.024L114.49 109.921L94.5217 93.9362C93.1044 92.801 91.9604 91.3618 91.1743 89.7249C90.3883 88.088 89.9802 86.2954 89.9803 84.4795V66.3867H58.7278V98.2715Z" fill="#31475C"/>
<mask id="mask2_932_3" style="mask-type:luminance" maskUnits="userSpaceOnUse" x="-1" y="0" width="131" height="132">
<path d="M-0.590085 66.1873C-0.592775 74.7498 1.0911 83.229 4.3654 91.1408C7.6397 99.0526 12.4403 106.242 18.4931 112.298C24.5459 118.355 31.7323 123.16 39.6421 126.439C47.5519 129.718 56.0301 131.407 64.5926 131.41C73.1551 131.407 81.6331 129.718 89.5428 126.439C97.4524 123.159 104.639 118.354 110.691 112.298C116.744 106.242 121.544 99.0522 124.819 91.1405C128.093 83.2288 129.777 74.7497 129.774 66.1873C129.777 57.6248 128.093 49.1457 124.819 41.234C121.544 33.3223 116.744 26.133 110.691 20.0765C104.639 14.0201 97.4524 9.21507 89.5428 5.93588C81.6331 2.65669 73.1551 0.967533 64.5926 0.964844C56.0301 0.967365 47.5519 2.6564 39.6421 5.93551C31.7323 9.21463 24.5459 14.0196 18.4931 20.0761C12.4403 26.1325 7.6397 33.3219 4.3654 41.2337C1.0911 49.1455 -0.592775 57.6247 -0.590085 66.1873Z" fill="white"/>
</mask>
<g mask="url(#mask2_932_3)">
<path d="M67.9182 98.2715L38.5063 124.024L12.1562 109.921L32.1243 93.9362C33.5415 92.801 34.6855 91.3618 35.4716 89.7249C36.2577 88.088 36.6658 86.2954 36.6657 84.4795V66.3867H67.9182V98.2715Z" fill="#31475C"/>
</g>
<path d="M78.0287 24.0801H66.9989C62.9742 24.0813 58.9891 24.8752 55.2712 26.4165C51.5533 27.9578 48.1754 30.2164 45.3304 33.0632C42.4853 35.91 40.2289 39.2893 38.6899 43.0082C37.1509 46.727 36.3595 50.7126 36.3608 54.7374V86.009C36.3602 89.2601 37.6508 92.3783 39.949 94.6779C42.2471 96.9775 45.3645 98.2701 48.6156 98.2714H78.0287C79.6385 98.2709 81.2325 97.9534 82.7195 97.3368C84.2066 96.7203 85.5577 95.8169 86.6957 94.6783C87.8336 93.5396 88.7362 92.1879 89.3517 90.7005C89.9673 89.213 90.2839 87.6189 90.2834 86.009V36.3425C90.2839 34.7327 89.9673 33.1385 89.3517 31.651C88.7362 30.1636 87.8336 28.8119 86.6957 27.6732C85.5577 26.5346 84.2066 25.6312 82.7195 25.0147C81.2325 24.3982 79.6385 24.0806 78.0287 24.0801Z" fill="#14254C"/>
<path d="M87.5278 65.4669C87.525 70.2535 86.1031 74.9318 83.4418 78.9104C80.7805 82.889 76.9993 85.9892 72.5763 87.8191C68.1533 89.649 63.287 90.1264 58.5927 89.1909C53.8984 88.2555 49.5868 85.9492 46.2031 82.5637C42.8193 79.1782 40.5153 74.8654 39.5824 70.1706C38.6494 65.4758 39.1294 60.6098 40.9616 56.1877C42.7939 51.7657 45.8961 47.9861 49.876 45.3269C53.856 42.6677 58.5351 41.2483 63.3217 41.248C66.5013 41.2489 69.6496 41.876 72.5869 43.0936C75.5242 44.3111 78.1929 46.0953 80.4406 48.3442C82.6884 50.5932 84.4711 53.2628 85.6872 56.2007C86.9032 59.1386 87.5286 62.2873 87.5278 65.4669Z" fill="#31475C"/>
<mask id="mask3_932_3" style="mask-type:luminance" maskUnits="userSpaceOnUse" x="39" y="41" width="49" height="49">
<path d="M39.1182 65.4669C39.1161 71.8883 41.6649 78.0474 46.204 82.5895C50.743 87.1317 56.9004 89.6847 63.3217 89.6871C66.5014 89.6862 69.6499 89.0591 72.5872 87.8414C75.5246 86.6238 78.1933 84.8395 80.4411 82.5904C82.6888 80.3414 84.4716 77.6716 85.6875 74.7335C86.9035 71.7955 87.5288 68.6467 87.5278 65.4669C87.5288 62.2873 86.9034 59.1385 85.6875 56.2005C84.4715 53.2625 82.6888 50.5928 80.441 48.3439C78.1932 46.0949 75.5245 44.3107 72.5871 43.0932C69.6498 41.8757 66.5014 41.2487 63.3217 41.248C60.1422 41.2491 56.9941 41.8763 54.057 43.094C51.12 44.3116 48.4515 46.0958 46.204 48.3448C43.9565 50.5937 42.174 53.2633 40.9582 56.2011C39.7424 59.1389 39.1172 62.2875 39.1182 65.4669Z" fill="white"/>
</mask>
<g mask="url(#mask3_932_3)">
<path d="M42.2029 97.5787V53.7272C42.2014 50.9527 42.7465 48.2051 43.8072 45.6414C44.8679 43.0777 46.4234 40.7481 48.3847 38.7857C50.346 36.8233 52.6748 35.2666 55.2379 34.2045C57.8011 33.1424 60.5484 32.5957 63.3229 32.5957C66.0974 32.5957 68.8447 33.1424 71.4078 34.2045C73.971 35.2666 76.2997 36.8233 78.2611 38.7857C80.2224 40.7481 81.7778 43.0777 82.8385 45.6414C83.8992 48.2051 84.4444 50.9527 84.4429 53.7272V100.999L42.2029 97.5787Z" fill="#E9AC6A"/>
</g>
<mask id="mask4_932_3" style="mask-type:luminance" maskUnits="userSpaceOnUse" x="-2" y="-1" width="131" height="132">
<path d="M-1.88672 64.8904C-1.88941 73.4529 -0.205529 81.9321 3.06877 89.8439C6.34307 97.7557 11.1437 104.945 17.1965 111.002C23.2492 117.058 30.4357 121.863 38.3455 125.142C46.2553 128.421 54.7335 130.11 63.296 130.113C71.8584 130.11 80.3365 128.421 88.2461 125.142C96.1558 121.863 103.342 117.058 109.395 111.001C115.447 104.945 120.248 97.7553 123.522 89.8436C126.796 81.9319 128.48 73.4528 128.477 64.8904C128.48 56.3279 126.796 47.8488 123.522 39.9371C120.248 32.0254 115.447 24.8361 109.395 18.7797C103.342 12.7232 96.1558 7.91819 88.2461 4.63901C80.3365 1.35982 71.8584 -0.329342 63.296 -0.332031C54.7335 -0.32951 46.2553 1.35953 38.3455 4.63864C30.4357 7.91775 23.2492 12.7227 17.1965 18.7792C11.1437 24.8357 6.34307 32.025 3.06877 39.9368C-0.205529 47.8486 -1.88941 56.3278 -1.88672 64.8904Z" fill="white"/>
</mask>
<g mask="url(#mask4_932_3)">
<path d="M53.2122 71.2912H64.2419V52.2832L53.2122 71.2912Z" fill="#DC7F1B"/>
</g>
<path d="M64.7937 79.8718C67.6205 80.0434 70.4314 79.3395 72.8436 77.8558C74.7694 76.6954 76.3829 75.0824 77.5438 73.157L75.4523 71.877C74.4955 73.4668 73.1656 74.7993 71.5777 75.7592C69.5825 76.9841 67.2586 77.5651 64.9217 77.4232L64.7937 79.8718Z" fill="white"/>
<path d="M78.9491 56.2674H74.4038C74.4038 55.7052 74.6271 55.1659 75.0246 54.7682C75.4221 54.3704 75.9612 54.1468 76.5235 54.1465H76.8281C77.1067 54.1465 77.3825 54.2013 77.6398 54.3079C77.8971 54.4145 78.1309 54.5707 78.3279 54.7677C78.5248 54.9646 78.6811 55.1985 78.7876 55.4558C78.8942 55.7131 78.9491 55.9889 78.9491 56.2674Z" fill="#231F20"/>
<path d="M51.9859 56.2674H47.4419C47.4419 55.7052 47.6652 55.1659 48.0627 54.7682C48.4601 54.3704 48.9993 54.1468 49.5616 54.1465H49.8649C50.4274 54.1465 50.9669 54.3699 51.3647 54.7677C51.7624 55.1655 51.9859 55.7049 51.9859 56.2674Z" fill="#231F20"/>
<path d="M39.1182 51.0066H89.3658V47.8066H39.1182V51.0066Z" fill="#14254C"/>
<path d="M39.1182 62.0008H89.3658V58.8008H39.1182V62.0008Z" fill="#14254C"/>
<path d="M39.1182 84.2684H86.3015V81.0684H39.1182V84.2684Z" fill="#14254C"/>
<path d="M39.1182 73.2762H89.3658V70.0762H39.1182V73.2762Z" fill="#14254C"/>
</g>
</g>
<defs>
<clipPath id="clip0_932_3">
<rect width="128" height="128" fill="white"/>
</clipPath>
</defs>
</svg>
